<svg width="73" height="43" viewBox="0 0 73 43" fill="none" xmlns="http://www.w3.org/2000/svg">
<g clip-path="url(#clip0_2_3066)">
<path d="M28.9219 10.418H37.6719V21.4531H35.4844C34.0521 21.4531 32.9974 21.3034 32.3203 21.0039C31.6432 20.6914 31.1094 20.3464 30.7188 19.9688C30.3411 19.5781 30.0156 19.0703 29.7422 18.4453C29.1953 17.1693 28.9219 15.3984 28.9219 13.1328V10.418ZM16.2852 10.418H26.793V37H16.2852V10.418ZM5.34766 10.418H14.0977V13.1328C14.0977 16.4792 13.4922 18.7578 12.2812 19.9688C11.2917 20.9583 9.70964 21.4531 7.53516 21.4531H5.34766V10.418ZM55.2109 10.418H67.2617V23.7969L55.2109 10.418ZM42.457 18.2695H42.3398C42.3398 15.5872 43.069 13.6081 44.5273 12.332C45.9857 11.056 48.2318 10.418 51.2656 10.418L67.2617 29.832C67.2617 32.4102 66.5651 34.2526 65.1719 35.3594C63.8177 36.4401 61.6042 36.9805 58.5312 36.9805L42.457 18.2695ZM42.3984 23.543L54 37H42.3984V23.543Z" fill="white"/>
<path d="M3.21875 41.9805H69.7812V45.1836H3.21875V41.9805Z" fill="white"/>
</g>
<defs>
<clipPath id="clip0_2_3066">
<rect width="73" height="43" fill="white"/>
</clipPath>
</defs>
</svg>
